<?xml version="1.0" encoding="UTF-8"?>
<svg id="Layer_1" data-name="Layer 1" xmlns="http://www.w3.org/2000/svg" viewBox="0 0 222.97 223.01">
  <defs>
    <style>
      .cls-1 {
        stroke-width: 3.35px;
      }

      .cls-1, .cls-2, .cls-3, .cls-4 {
        stroke: #fff;
        stroke-miterlimit: 10;
      }

      .cls-2 {
        stroke-width: 2.89px;
      }

      .cls-3 {
        stroke-width: 5.03px;
      }

      .cls-4 {
        stroke-width: 6.92px;
      }
    </style>
  </defs>
  <rect class="cls-3" x="2.51" y="2.51" width="217.94" height="217.94"/>
  <path class="cls-3" d="m219.48,138.81c-12.68-5.04-21.98-5.01-28.1-4.32-24.62,2.75-32.52,31.74-54.79,31.04-10.54-.33-11.95-8.18-23.03-7.68-14.03.63-34.38,14.23-32.48,34.26,1.59,16.85,18.18,30.48,37.1,28.13h101.46l-.14-81.43Z"/>
  <path class="cls-3" d="m200.11,169.69c.04.18-5.07,2.57-9.49,3.66-12.15,3-15.6,3.13-28.4,2.75-4.91-.14-10.24-1.23-10.23-1.42.01-.28,11.95.84,24.81,1.17,11.04-2.23,23.25-6.44,23.31-6.16Z"/>
  <path class="cls-3" d="m194.99,14.87c0-1.17,1.59-1.52,2.07-.46,2.77,6.18,7.75,17.62,11.7,26.7,3.72,8.57,4.22,18.2,1.38,27.11-4.66,14.62-10.67,36.81-11.45,39.7-.06.21-.05.42.03.63l8.73,24.67c.28.8-.4,1.59-1.23,1.42-3.59-.72-8.39-1.27-13.98-.73-7.16.68-12.87,2.86-16.73,4.77-.83.41-1.75-.36-1.51-1.26l7.36-27.56c.08-.29.04-.58-.11-.83-1.84-3.04-13.94-23.06-13.94-23.83h0c-19.99-18.94-26.53-30.69-25.61-36.73.98-6.47,1.29-11.82,1.29-15.07,0-.04,0-.06,0-.1-.11-1.26-2.31-26.09,2.98-22.74,3.87,2.45,8.95,25.67,12.75,37.72,1.21,3.84,3.29,7.34,6.08,10.25,7.1,7.39,20.69,21.36,22,21.36.52,0,1.44-2.01,2.48-4.86,3.92-10.7,5.79-22.03,5.77-33.42l-.05-26.74Z"/>
  <path class="cls-3" d="m103.24,162.01c4.17,8.1,7.97,16.61,6.31,24.31-1.8,8.34-6.82,17.14-16.7,23.78"/>
  <g>
    <path class="cls-2" d="m138.56,37.74h0c.9.67,2.06.87,3.13.54h0c2.74-.84,5.28,1.77,4.37,4.49h0c-.36,1.06-.19,2.23.45,3.14h0c1.64,2.35-.05,5.57-2.92,5.54h0c-1.12-.01-2.17.51-2.85,1.4h0c-1.72,2.29-5.31,1.67-6.17-1.06h0c-.33-1.07-1.16-1.91-2.21-2.27h0c-2.71-.93-3.23-4.54-.9-6.2h0c.91-.65,1.46-1.69,1.48-2.81h0c.05-2.86,3.32-4.47,5.62-2.77Z"/>
    <circle class="cls-2" cx="138.67" cy="45.23" r="1.17"/>
  </g>
  <g>
    <path class="cls-2" d="m213.3,73.04h0c.05,1.12.62,2.15,1.55,2.77h0c2.37,1.6,1.94,5.22-.74,6.22h0c-1.05.39-1.85,1.25-2.16,2.33h0c-.79,2.75-4.36,3.46-6.14,1.22h0c-.69-.88-1.76-1.37-2.88-1.33h0c-2.86.1-4.64-3.08-3.05-5.47h0c.62-.93.76-2.1.38-3.15h0c-.98-2.69,1.5-5.36,4.25-4.59h0c1.08.3,2.23.07,3.11-.62h0c2.26-1.76,5.56-.24,5.68,2.63Z"/>
    <circle class="cls-2" cx="207.55" cy="77.83" r="1.17"/>
  </g>
  <g>
    <path class="cls-2" d="m176.01,109.43h0c.89.67,2.05.88,3.12.56h0c2.75-.82,5.27,1.81,4.33,4.52h0c-.36,1.06-.2,2.22.43,3.14h0c1.63,2.36-.1,5.57-2.96,5.52h0c-1.12-.02-2.18.49-2.86,1.38h0c-1.74,2.28-5.32,1.63-6.16-1.11h0c-.33-1.07-1.14-1.92-2.2-2.29h0c-2.7-.95-3.2-4.56-.85-6.2h0c.92-.64,1.47-1.68,1.5-2.8h0c.07-2.86,3.35-4.45,5.64-2.72Z"/>
    <circle class="cls-2" cx="176.07" cy="116.92" r="1.17"/>
  </g>
  <g>
    <path class="cls-2" d="m191.65,36.51h0c.78.8,1.89,1.19,3,1.04h0c2.84-.38,4.92,2.61,3.58,5.14h0c-.52.99-.55,2.17-.06,3.17h0c1.24,2.58-.96,5.49-3.78,4.99h0c-1.1-.19-2.23.15-3.04.92h0c-2.07,1.98-5.51.78-5.91-2.06h0c-.16-1.11-.83-2.07-1.81-2.61h0c-2.52-1.36-2.45-5,.13-6.26h0c1-.49,1.72-1.43,1.92-2.53h0c.52-2.82,4-3.87,5.99-1.81Z"/>
    <circle class="cls-2" cx="190.54" cy="43.92" r="1.17"/>
  </g>
  <g>
    <path class="cls-3" d="m61.87,138.11h0c.89,3.16,3.23,5.7,6.29,6.86h0c7.86,2.96,9.08,13.58,2.1,18.24h0c-2.73,1.82-4.42,4.83-4.58,8.11h0c-.39,8.39-10.1,12.83-16.7,7.63h0c-2.58-2.03-5.96-2.71-9.12-1.85h0c-8.1,2.22-15.33-5.65-12.42-13.53h0c1.13-3.08.74-6.51-1.06-9.25h0c-4.62-7.02.63-16.32,9.03-15.99h0c3.28.13,6.42-1.31,8.47-3.87h0c5.25-6.56,15.72-4.44,18,3.64Z"/>
    <circle class="cls-4" cx="48.48" cy="156.31" r="2.79"/>
  </g>
  <path class="cls-3" d="m43.4,177.46c1.53,23.15-.27,33.09-5.21,42.42"/>
  <path class="cls-1" d="m42.84,208.88c9.46,1.03,16.82-4.64,17.49-8.06.66-3.38-6.38-9.76-15.15-12.39l-2.33,20.45Z"/>
  <path class="cls-1" d="m45.96,199.32c3.91.48,5.87.66,5.89.56.02-.12-2.39-.6-7.22-1.44"/>
</svg>