<?xml version="1.0" encoding="utf-8"?>
<!-- Generator: Adobe Illustrator 27.8.1, SVG Export Plug-In . SVG Version: 6.00 Build 0)  -->
<svg version="1.1" id="Layer_1" xmlns="http://www.w3.org/2000/svg" xmlns:xlink="http://www.w3.org/1999/xlink" x="0px" y="0px"
	 viewBox="0 0 223 223" style="enable-background:new 0 0 223 223;" xml:space="preserve">
<style type="text/css">
	.st0{stroke:#FFFFFF;stroke-width:5.03;stroke-miterlimit:10;}
	.st1{stroke:#FFFFFF;stroke-width:2.89;stroke-miterlimit:10;}
	.st2{stroke:#FFFFFF;stroke-width:6.92;stroke-miterlimit:10;}
	.st3{stroke:#FFFFFF;stroke-width:3.35;stroke-miterlimit:10;}
	.st4{fill:none;stroke:#000000;stroke-width:5.1274;stroke-miterlimit:10;}
	.st5{fill:none;stroke:#000000;stroke-miterlimit:10;}
</style>
<rect x="2.5" y="2.5" class="st0" width="217.9" height="217.9"/>
<path class="st0" d="M219.5,138.8c-12.7-5-22-5-28.1-4.3c-24.6,2.8-32.5,31.7-54.8,31c-10.5-0.3-11.9-8.2-23-7.7
	c-14,0.6-34.4,14.2-32.5,34.3c1.6,16.9,18.2,30.5,37.1,28.1h101.5L219.5,138.8L219.5,138.8z"/>
<path class="st0" d="M200.1,169.7c0,0.2-5.1,2.6-9.5,3.7c-12.1,3-15.6,3.1-28.4,2.8c-4.9-0.1-10.2-1.2-10.2-1.4
	c0-0.3,11.9,0.8,24.8,1.2C187.8,173.6,200.1,169.4,200.1,169.7z"/>
<path class="st0" d="M195,14.9c0-1.2,1.6-1.5,2.1-0.5c2.8,6.2,7.8,17.6,11.7,26.7c3.7,8.6,4.2,18.2,1.4,27.1
	c-4.7,14.6-10.7,36.8-11.4,39.7c-0.1,0.2-0.1,0.4,0,0.6l8.7,24.7c0.3,0.8-0.4,1.6-1.2,1.4c-3.6-0.7-8.4-1.3-14-0.7
	c-7.2,0.7-12.9,2.9-16.7,4.8c-0.8,0.4-1.8-0.4-1.5-1.3l7.4-27.6c0.1-0.3,0-0.6-0.1-0.8c-1.8-3-13.9-23.1-13.9-23.8l0,0
	c-20-18.9-26.5-30.7-25.6-36.7c1-6.5,1.3-11.8,1.3-15.1c0,0,0-0.1,0-0.1c-0.1-1.3-2.3-26.1,3-22.7c3.9,2.4,8.9,25.7,12.8,37.7
	c1.2,3.8,3.3,7.3,6.1,10.2c7.1,7.4,20.7,21.4,22,21.4c0.5,0,1.4-2,2.5-4.9c3.9-10.7,5.8-22,5.8-33.4L195,14.9L195,14.9z"/>
<path class="st0" d="M103.2,162c4.2,8.1,8,16.6,6.3,24.3c-1.8,8.3-6.8,17.1-16.7,23.8"/>
<g>
	<path class="st1" d="M138.6,37.7L138.6,37.7c0.9,0.7,2.1,0.9,3.1,0.5l0,0c2.7-0.8,5.3,1.8,4.4,4.5l0,0c-0.4,1.1-0.2,2.2,0.4,3.1
		l0,0c1.6,2.3-0.1,5.6-2.9,5.5l0,0c-1.1,0-2.2,0.5-2.9,1.4l0,0c-1.7,2.3-5.3,1.7-6.2-1.1l0,0c-0.3-1.1-1.2-1.9-2.2-2.3l0,0
		c-2.7-0.9-3.2-4.5-0.9-6.2l0,0c0.9-0.7,1.5-1.7,1.5-2.8l0,0C133,37.7,136.3,36,138.6,37.7L138.6,37.7z"/>
	<circle class="st1" cx="138.7" cy="45.2" r="1.2"/>
</g>
<g>
	<path class="st1" d="M213.3,73L213.3,73c0.1,1.1,0.6,2.2,1.6,2.8l0,0c2.4,1.6,1.9,5.2-0.7,6.2l0,0c-1.1,0.4-1.9,1.2-2.2,2.3l0,0
		c-0.8,2.8-4.4,3.5-6.1,1.2l0,0c-0.7-0.9-1.8-1.4-2.9-1.3l0,0c-2.9,0.1-4.6-3.1-3.1-5.5l0,0c0.6-0.9,0.8-2.1,0.4-3.2l0,0
		c-1-2.7,1.5-5.4,4.2-4.6l0,0c1.1,0.3,2.2,0.1,3.1-0.6l0,0C209.9,68.7,213.2,70.2,213.3,73L213.3,73z"/>
	<circle class="st1" cx="207.6" cy="77.8" r="1.2"/>
</g>
<g>
	<path class="st1" d="M176,109.4L176,109.4c0.9,0.7,2.1,0.9,3.1,0.6l0,0c2.8-0.8,5.3,1.8,4.3,4.5l0,0c-0.4,1.1-0.2,2.2,0.4,3.1l0,0
		c1.6,2.4-0.1,5.6-3,5.5l0,0c-1.1,0-2.2,0.5-2.9,1.4l0,0c-1.7,2.3-5.3,1.6-6.2-1.1l0,0c-0.3-1.1-1.1-1.9-2.2-2.3l0,0
		c-2.7-0.9-3.2-4.6-0.9-6.2l0,0c0.9-0.6,1.5-1.7,1.5-2.8l0,0C170.4,109.3,173.7,107.7,176,109.4L176,109.4z"/>
	<circle class="st1" cx="176.1" cy="116.9" r="1.2"/>
</g>
<g>
	<path class="st1" d="M191.6,36.5L191.6,36.5c0.8,0.8,1.9,1.2,3,1l0,0c2.8-0.4,4.9,2.6,3.6,5.1l0,0c-0.5,1-0.6,2.2-0.1,3.2l0,0
		c1.2,2.6-1,5.5-3.8,5l0,0c-1.1-0.2-2.2,0.2-3,0.9l0,0c-2.1,2-5.5,0.8-5.9-2.1l0,0c-0.2-1.1-0.8-2.1-1.8-2.6l0,0
		c-2.5-1.4-2.4-5,0.1-6.3l0,0c1-0.5,1.7-1.4,1.9-2.5l0,0C186.2,35.5,189.7,34.4,191.6,36.5L191.6,36.5z"/>
	<circle class="st1" cx="190.5" cy="43.9" r="1.2"/>
</g>
<g>
	<path class="st0" d="M61.9,138.1L61.9,138.1c0.9,3.2,3.2,5.7,6.3,6.9l0,0c7.9,3,9.1,13.6,2.1,18.2l0,0c-2.7,1.8-4.4,4.8-4.6,8.1
		l0,0c-0.4,8.4-10.1,12.8-16.7,7.6l0,0c-2.6-2-6-2.7-9.1-1.9l0,0c-8.1,2.2-15.3-5.6-12.4-13.5l0,0c1.1-3.1,0.7-6.5-1.1-9.2l0,0
		c-4.6-7,0.6-16.3,9-16l0,0c3.3,0.1,6.4-1.3,8.5-3.9l0,0C49.1,127.9,59.6,130,61.9,138.1L61.9,138.1z"/>
	<circle class="st2" cx="48.5" cy="156.3" r="2.8"/>
</g>
<path class="st0" d="M43.4,177.5c1.5,23.1-0.3,33.1-5.2,42.4"/>
<path class="st3" d="M42.8,208.9c9.5,1,16.8-4.6,17.5-8.1c0.7-3.4-6.4-9.8-15.2-12.4L42.8,208.9L42.8,208.9z"/>
<path class="st3" d="M46,199.3c3.9,0.5,5.9,0.7,5.9,0.6c0-0.1-2.4-0.6-7.2-1.4"/>
<rect x="2.5" y="2.6" class="st4" width="217.9" height="217.8"/>
<rect x="117" y="215.9" width="101.5" height="4.4"/>
<rect x="216.2" y="140.8" width="2.7" height="76.5"/>
<path class="st5" d="M216.7,141l0.9,0.3L216.7,141z"/>
<rect x="-0.6" y="-1" width="224.2" height="9.7"/>
<rect x="-0.2" y="217.6" width="224.2" height="9.7"/>
<rect x="110.8" y="108.1" transform="matrix(8.054838e-15 -1 1 8.054838e-15 109.9784 335.8397)" width="224.2" height="9.7"/>
<rect x="-109.2" y="107.9" transform="matrix(8.054838e-15 -1 1 8.054838e-15 -107.6113 117.7899)" width="228.5" height="9.7"/>
</svg>
